<svg width="30" height="30" viewBox="0 0 30 30" fill="none" xmlns="http://www.w3.org/2000/svg">
<path d="M4.13281 7.77344C7.50093 3.15969 13.9779 2.13634 18.5918 5.49023C19.2006 5.92992 19.7446 6.42347 20.2266 6.95898V6.95605C22.3038 7.51695 24.198 8.75992 25.5537 10.6201C28.0734 14.0897 28.0085 18.7492 25.5254 22.1201V25.8965C25.5254 26.3954 25.1219 26.7988 24.623 26.7988C24.5275 26.7988 24.4347 26.782 24.3447 26.7539L20.7617 25.5869C17.7432 26.5845 14.4516 26.0342 11.9404 24.2051L11.9541 24.1943C10.9846 24.1408 10.0096 23.9487 9.06543 23.6133L5.49707 24.7383C5.0236 24.8877 4.51564 24.6257 4.36621 24.1494C4.33803 24.0649 4.32422 23.974 4.32422 23.8838L4.30176 20.1465C1.53419 16.5642 1.41866 11.522 4.13281 7.77344ZM22.1543 10.0732C23.4057 13.2524 23.0564 16.9814 20.9033 19.9492C19.542 21.8151 17.6532 23.1122 15.5703 23.752L15.5762 23.7549C17.1347 24.1916 18.8173 24.1438 20.3955 23.5576L20.7334 23.416L23.4961 24.3467L23.4678 21.415L23.6934 21.1338C25.8495 18.4618 25.9652 14.6393 23.9189 11.832C23.4144 11.1302 22.8191 10.55 22.1709 10.085L22.1543 10.0732ZM17.4082 7.125C13.6935 4.43618 8.48466 5.25943 5.76758 8.98535C3.5354 12.0602 3.69293 16.2515 6.07715 19.1602L6.30273 19.4141L6.33105 22.3457L9.12109 21.4717L9.45996 21.6123C12.969 22.9792 17.011 21.8348 19.2686 18.7373C21.9599 15.0338 21.1341 9.8335 17.4082 7.125ZM8.61621 12.7627C9.21084 12.7627 9.7157 13.2669 9.71582 13.8896C9.71582 14.5125 9.21092 15.0176 8.61621 15.0176C7.96529 15.0174 7.46094 14.5124 7.46094 13.8896C7.46106 13.267 7.96537 12.7629 8.61621 12.7627ZM12.5615 12.7627C13.1562 12.7627 13.661 13.2669 13.6611 13.8896C13.6611 14.5125 13.1562 15.0176 12.5615 15.0176C11.9106 15.0174 11.4062 14.5124 11.4062 13.8896C11.4064 13.267 11.9107 12.7629 12.5615 12.7627ZM16.5088 12.7627C17.1032 12.7629 17.6073 13.267 17.6074 13.8896C17.6074 14.5124 17.1033 15.0173 16.5088 15.0176C15.8577 15.0176 15.3525 14.5125 15.3525 13.8896C15.3527 13.2669 15.8578 12.7627 16.5088 12.7627Z" fill="#A0A0A0"/>
</svg>
